<svg xmlns="http://www.w3.org/2000/svg" viewBox="0 0 401.61 88.99"><defs><style>.cls-1{fill:#ed5332;}</style></defs><title>open_sauced</title><g id="working"><path class="cls-1" d="M331,75.22c-.05-.6-.11-1.21-.14-1.81-.06-1.16,2.59-13.65,3.09-16.24.91-4.62,1.87-9.23,2.77-13.85,1.17-6,2.52-11.89,4-17.81.24-1,.46-1.94.66-2.9.27-1.25,3.5-18.78,3.86-20.83.05-.33.12-.65.19-1A.73.73,0,0,1,346,.28,13.6,13.6,0,0,1,349.23,0a3.61,3.61,0,0,1,1.67.56c.34.2,10.59,5.27,11.44,5.72.41.21,9.83,4.74,14.09,6.84,1.64.82,3.28,1.65,4.95,2.43a44.66,44.66,0,0,1,8.14,5c1.77,1.36,3.53,2.73,5.26,4.13A20.21,20.21,0,0,1,401,33.35a9.29,9.29,0,0,1,.63,3.14,18.9,18.9,0,0,1-1.16,7.15,34.54,34.54,0,0,1-2.3,4.9A15.26,15.26,0,0,1,396,51.45,82.38,82.38,0,0,1,379.84,65c-3.67,2.34-25.22,17.27-25.32,17.44-.24.38-2.56,1-3.28,1.06-1.22.15-2.45.28-3.67.38-2.36.18-4.71.34-7.07.49a15,15,0,0,1-3.14-.17,4.25,4.25,0,0,1-1.77-.66,7.06,7.06,0,0,0-1.43-.71A3.1,3.1,0,0,1,332,80.6,23.63,23.63,0,0,1,331,75.22Zm48.28-38.51a5.19,5.19,0,0,0-1.56-3.39,17.48,17.48,0,0,0-1.82-1.58,25.06,25.06,0,0,0-4.31-2.54c-1.39-.65-2.77-1.33-4.15-2a12,12,0,0,0-1.32-.58,7.22,7.22,0,0,0-1.33-.35,3.18,3.18,0,0,0-2.93.94,3.8,3.8,0,0,0-.64,1,9.66,9.66,0,0,0-.48,1.53c-.84,3.69-1.65,7.37-2.49,11.06-.45,1.95-.91,3.9-1.41,5.85s-1.15,4.2-1.71,6.3a7.75,7.75,0,0,0-.29,1.63,2.87,2.87,0,0,0,.25,1.35,2.16,2.16,0,0,0,2.24,1,4.45,4.45,0,0,0,1.82-.66,14.75,14.75,0,0,0,1.42-1A39.31,39.31,0,0,1,365.35,52,89.67,89.67,0,0,0,373,46.8a12.41,12.41,0,0,0,2.93-3c.53-.81,1.1-1.6,1.65-2.4a9.63,9.63,0,0,0,1.32-2.62A5.78,5.78,0,0,0,379.25,36.71Z"/><path class="cls-1" d="M285.79,84.64c-3.29-.14-11.06-1.38-11.48-1.47a7,7,0,0,1-3.4-1.72,33.68,33.68,0,0,1-3.79-4.28c-1.11-1.53-2.19-3.07-3.28-4.61a11.6,11.6,0,0,1-2.21-7.86A49.84,49.84,0,0,1,263,56.51c.71-2.61,1.56-5.21,2.29-7.82,1.52-5.48,10.79-28.79,11.17-28.95.69-.29,1.39-.59,2.1-.85l5.27-1.9c1-.38,2.06-.8,3.08-1.2,2.92-1.13,5.86-2.23,8.76-3.4,1.59-.63,3.09-1.39,4.67-2.05,2-.83,4-1.64,6-2.37,1-.35,22.82-6.24,24.29-6.47.34-.06.7-.08,1.05-.11a1.16,1.16,0,0,1,1,.4,1.46,1.46,0,0,1,.16.21c.88,1.41,1.79,2.8,2.62,4.22A10.2,10.2,0,0,1,336.65,13a10,10,0,0,1-.57,1.79c-.1.29-9.07,3.41-10.29,3.72-2.88.74-20,7.11-24.37,8.74-.84.31-1.67.63-2.48,1a7.83,7.83,0,0,0-1.85,1,3.19,3.19,0,0,0-1.24,1.52c-.36,1.13.7,2.11,2.26,2a7.5,7.5,0,0,0,1.57-.29c.65-.17,1.27-.4,1.89-.62q6.74-2.37,13.8-4.14c1.75-.44,3.5-.88,5.27-1.28,1.11-.25,2.25-.44,3.38-.64a4.64,4.64,0,0,1,2,.25,9.82,9.82,0,0,1,2.75,3.76,12.24,12.24,0,0,1,.44,1.76c.15,1,.23,2.1.34,3.15,0,.35,0,.71.08,1.05a6.94,6.94,0,0,1-.73,3.5c-.6.35-6.42,3-8.78,3.84-6.43,2.42-33.9,7.56-34.79,9.47-.15.33-1.88,7.59-2.24,10.09a7.47,7.47,0,0,0,2.47,6.51,9,9,0,0,0,3.74,1c1.18,0,23.54-4.28,25.51-4.32l.42,0c.38.05.65.28.65.56a6.34,6.34,0,0,1-.14,1.44,4,4,0,0,1-.35.93c-1.36,2.71-2.47,5.47-3.6,8.23A14.72,14.72,0,0,1,308.46,82a3.13,3.13,0,0,1-1.86.88c-2.35.3-4.69.67-7.08.8-1.79.09-4.69.42-6.45.67A30.32,30.32,0,0,1,285.79,84.64Z"/><path class="cls-1" d="M74.93,7.23c.55,0,1.09-.07,1.64-.07A8.5,8.5,0,0,1,82,8.81c.93.74,1.84,1.49,2.72,2.27a6.24,6.24,0,0,1,2.35,5.16,3,3,0,0,1-.54,1.53c-.39.54-5.55,3-6.82,3.31-.79.18-9.89,2.46-10.94,2.64a20.26,20.26,0,0,0-6.13,2c-1,.56-2.09,1.12-3.09,1.72a4.49,4.49,0,0,0-1,.88,1.58,1.58,0,0,0-.21,1.93c.38.79,8.09,2.26,9.61,2.52l2.79.49a9.22,9.22,0,0,1,4.83,2.25c.47.45.95.9,1.37,1.37.82.91,1.61,1.82,2.39,2.73a12.87,12.87,0,0,1,.89,1.24,2.9,2.9,0,0,1,.4,2.24,5.26,5.26,0,0,1-.21.75A29.35,29.35,0,0,1,77.93,49a38.11,38.11,0,0,1-8.55,9.78c-1,.85-2,1.73-3,2.6a31.27,31.27,0,0,1-5.4,3.73c-2,1.11-4,2.21-6.09,3.29-2.35,1.24-4.88,2.27-7.42,3.3-1.64.66-3.32,1.3-5,1.95s-3.23,1.31-4.87,1.94c-1.21.47-2.43.95-3.71,1.33a96,96,0,0,0-10.44,3.91c-1.18.51-2.36,1-3.55,1.53s-7.35,2.33-8.59,2.27a15.94,15.94,0,0,1-3.94-.69c-1-.32-2.07-.65-3.09-1a10,10,0,0,1-3.53-2.1c-.12-.11-.23-.24-.34-.36a1.24,1.24,0,0,1-.21-1.55,11.84,11.84,0,0,1,4-4.25c2.34-1.47,4.72-2.89,6.9-4.46A28.38,28.38,0,0,1,17,66.86c.85-.34,10-5.21,10.57-5.47,2.95-1.43,5.71-3,8.7-4.44,1.44-.67,14.08-8.18,14.21-8.42.48-.85.13-1.64-1-2.12a6.78,6.78,0,0,0-1.3-.4c-.52-.12-1.06-.21-1.59-.3a47.62,47.62,0,0,1-10-2.76,10.41,10.41,0,0,1-4.34-3,20.88,20.88,0,0,1-2-3,4.13,4.13,0,0,1-.38-3.37,11.19,11.19,0,0,1,2.34-3.87A53.38,53.38,0,0,1,38.07,24c2-1.64,4-3.27,6.17-4.81A42.12,42.12,0,0,1,53,14.3c1.11-.46,5.52-2.53,6.08-2.71s1-.36,1.45-.55C61.32,10.71,73.77,7.25,74.93,7.23Z"/><path class="cls-1" d="M146.57,52.69c-.13-2.62-.87-33.45-1.07-33.87a3.78,3.78,0,0,1-.18-2.84c.26-.79.48-1,1.37-1a21.54,21.54,0,0,1,4.25.11c2.67.36,5.33.79,8,1.25a16.89,16.89,0,0,1,5.63,2.19,11.08,11.08,0,0,0,1.06.6,1.9,1.9,0,0,1,1,1.24,25.56,25.56,0,0,1,.78,5.95,42.14,42.14,0,0,1-.39,6.25c-.54,3.66-.78,7.36-1,11-.07,1.37-.16,2.74-.24,4.11a43,43,0,0,0,.82,10.05,17.57,17.57,0,0,0,.92,3.24,8,8,0,0,0,1.29,2.32,2.45,2.45,0,0,0,3.62.21,4.33,4.33,0,0,0,.82-1,15.11,15.11,0,0,0,.87-1.7c.74-1.61,5.93-8.7,6.73-13.45A92.64,92.64,0,0,0,184,35.57c.42-2.27.86-4.55,1.4-6.8.77-3.23,1.37-6.48,1.82-9.76.32-2.26.64-4.52,1-6.78.17-1.09.39-2.16.62-3.23a8.41,8.41,0,0,1,.49-1.52,3.78,3.78,0,0,1,.87-1.23A1.78,1.78,0,0,1,192.07,6a4.84,4.84,0,0,1,1.33.89,12.1,12.1,0,0,0,2.94,2,6.88,6.88,0,0,1,2.55,2.2c1,1.31,2,2.59,2.9,3.9a17.42,17.42,0,0,1,1.13,1.71,7.54,7.54,0,0,1,1,4.08,73.54,73.54,0,0,0,.38,8.65,26.92,26.92,0,0,1-.1,4.21,23.58,23.58,0,0,0-.06,5.11,10.12,10.12,0,0,1-.15,2.69,37.61,37.61,0,0,0-.76,4.83,21.65,21.65,0,0,1-.55,3.3,146.07,146.07,0,0,1-6.4,19.13c-.59,1.48-1.22,2.95-1.92,4.38a20.83,20.83,0,0,1-3.19,5,20.93,20.93,0,0,1-4.59,3.57c-5.4,3.36-13.39,3.9-19.17,2a16.6,16.6,0,0,1-6.91-4q-2.89-2.89-6-5.58A51.87,51.87,0,0,1,149.62,68a12.59,12.59,0,0,1-1.87-5.06c-.25-1.88-.51-3.76-.73-5.64C146.84,55.71,146.71,54.12,146.57,52.69Z"/><path class="cls-1" d="M209.58,61.58c0-1,0-2.2,0-3.38a26.46,26.46,0,0,1,.45-5.11c.29-1.54,1.89-7.72,2.19-8.76A53.59,53.59,0,0,1,216,35.89,15.51,15.51,0,0,0,217.91,32a13.88,13.88,0,0,1,2-3.68c1.36-1.91,6-9.09,6.86-10.81A14.78,14.78,0,0,1,230.36,13c.91-.77,1.8-1.55,2.67-2.36a19.3,19.3,0,0,1,3.82-2.81c.73-.41,1.32-1.16,2.16-1.31,9.85-1.71,15.18,6.66,16.22,8.68.52,1,2.14,6.36,2,7-.19.93-2.65,1.71-3.18,1.83a7.29,7.29,0,0,0-3.79,2.17c-.32.35-.65.69-.94,1.06-2.66,3.35-5.39,6.64-7.71,10.23-1.39,2.14-2.86,4.23-4.26,6.36a73,73,0,0,0-5.68,10.27,18.29,18.29,0,0,0-1.57,6.16,15.92,15.92,0,0,0,.42,5.79,13.07,13.07,0,0,0,.86,2.17,5.56,5.56,0,0,0,2.44,2.45,8.78,8.78,0,0,0,5.89.79,14.73,14.73,0,0,0,2.8-.8,43.9,43.9,0,0,1,7.42-2,5.91,5.91,0,0,1,2.26-.07c1.12.17,2.24.37,3.34.63s4.35,3.67,4.43,4.63c.11,1.36-2.16,8.35-2.66,8.61a7.63,7.63,0,0,1-.87.41c-1.75.62-7,3.72-8.16,4-1,.21-1.91.4-2.88.57-2.28.41-4.55.83-6.84,1.2-1.18.19-2.38.29-3.57.39s-7.7-1.61-9.68-2.23c-1-.31-5.27-3.79-6.38-5.17-1.37-1.68-2.76-3.36-4.26-4.94a16.14,16.14,0,0,1-3.88-6.72A27.84,27.84,0,0,1,209.58,61.58Z"/><path class="cls-1" d="M85.67,83.82h0a18.89,18.89,0,0,1-6.44-2.09,4.57,4.57,0,0,1-.9-.59,7,7,0,0,1-2-3.17,7.34,7.34,0,0,1-.19-2.64,24.86,24.86,0,0,1,1.36-6c.18-.48.31-1,.48-1.45.32-1,2.21-6.07,2.63-7.2.73-1.94,5.68-13.45,6.54-14.31C88.22,45.31,92,34,92.79,32.68c.22-.36.42-.74.63-1.11.52-.93,4.17-8.59,4.54-9.27.16-.3,3.21-5.54,5.63-9.71a13.68,13.68,0,0,1,9.61-6.3h.07l.29,0a12.21,12.21,0,0,1,5.9.73c2.9,1.11,7.52,2.88,8.34,3.25h0a8.69,8.69,0,0,1,3.69,3c.65,1,1.37,2.08,1.78,2.87a17.1,17.1,0,0,1,1.58,4.31C135.58,24,136.31,27.5,137,31a23.8,23.8,0,0,1,.39,2.76c.1,1.23.54,9.48.42,11.88-.11,2.24-.05,4.47.06,6.7.08,1.54.74,11.59.72,13.13s0,3,0,4.52a51.22,51.22,0,0,1-.51,5.79c-.08.49-.17,1-.28,1.47a4.81,4.81,0,0,1-2,2.89A13.35,13.35,0,0,1,132,82c-.43.13-33.33-.54-42,1.57A11.73,11.73,0,0,1,85.67,83.82Z"/></g></svg>